<svg viewBox="0 0 24 24" width="100" height="100" xmlns="http://www.w3.org/2000/svg">
  <path d="M13.5,3 C13.5,2.172 12.828,1.5 12,1.5 C11.172,1.5 10.5,2.172 10.5,3 V13 C10.5,13.828 11.172,14.5 12,14.5 C12.828,14.5 13.5,13.828 13.5,13 V3 Z M7.854,5.749 C8.544,5.29 8.731,4.359 8.272,3.669 C7.814,2.98 6.883,2.792 6.193,3.251 C3.367,5.129 1.5,8.346 1.5,12 C1.5,17.799 6.201,22.5 12,22.5 C17.799,22.5 22.5,17.799 22.5,12 C22.5,8.346 20.633,5.129 17.807,3.251 C17.117,2.792 16.186,2.98 15.728,3.669 C15.269,4.359 15.456,5.29 16.146,5.749 C18.171,7.095 19.5,9.393 19.5,12 C19.5,16.142 16.142,19.5 12,19.5 C7.858,19.5 4.5,16.142 4.5,12 C4.5,9.393 5.829,7.095 7.854,5.749 Z" fill="#09244B"/>
</svg>
